# xmcd
#
# Track frame offsets:
#	150
#	21525
#	39927
#	61972
#	79095
#	99020
#	118265
#	134197
#	154237
#	174160
#	192407
#	213607
#	234315
#	257062
#	275550
#	293612
#
# Disc length: 4197 seconds
#
# Revision: 1
# Processed by: cddbd v1.5.1PL0 Copyright (c) Steve Scherf et al.
# Submitted via: CDex 1.50Beta5
#
DISCID=e6106310
DTITLE=大月みやこ - 大月みやこベスト・セレクション
DYEAR=1900
DGENRE=Other
TTITLE0=愛にゆれて・・・
TTITLE1=白い海峡
TTITLE2=恋ものがたり
TTITLE3=今はこのまま
TTITLE4=乱れ花
TTITLE5=かくれ宿
TTITLE6=大阪ふたりづれ
TTITLE7=名残の花
TTITLE8=女の港
TTITLE9=豊予海峡
TTITLE10=女の舞
TTITLE11=冬の駅
TTITLE12=命の花
TTITLE13=大阪ごころ
TTITLE14=別れてひとり
TTITLE15=女の駅
EXTD=
EXTT0=
EXTT1=
EXTT2=
EXTT3=
EXTT4=
EXTT5=
EXTT6=
EXTT7=
EXTT8=
EXTT9=
EXTT10=
EXTT11=
EXTT12=
EXTT13=
EXTT14=
EXTT15=
PLAYORDER=
